<svg width="75" height="75" viewBox="0 0 75 75" fill="none" xmlns="http://www.w3.org/2000/svg">
<path d="M30 26.25C27.9375 26.25 26.25 27.9375 26.25 30C26.25 32.0625 27.9375 33.75 30 33.75C32.0625 33.75 33.75 32.0625 33.75 30C33.75 27.9375 32.0625 26.25 30 26.25ZM30 41.25C27.9375 41.25 26.25 42.9375 26.25 45C26.25 47.0625 27.9375 48.75 30 48.75C32.0625 48.75 33.75 47.0625 33.75 45C33.75 42.9375 32.0625 41.25 30 41.25ZM18.75 28.125C17.7187 28.125 16.875 28.9687 16.875 30C16.875 31.0312 17.7187 31.875 18.75 31.875C19.7812 31.875 20.625 31.0312 20.625 30C20.625 28.9687 19.7812 28.125 18.75 28.125ZM30 54.375C28.9687 54.375 28.125 55.2187 28.125 56.25C28.125 57.2812 28.9687 58.125 30 58.125C31.0312 58.125 31.875 57.2812 31.875 56.25C31.875 55.2187 31.0312 54.375 30 54.375ZM18.75 43.125C17.7187 43.125 16.875 43.9687 16.875 45C16.875 46.0312 17.7187 46.875 18.75 46.875C19.7812 46.875 20.625 46.0312 20.625 45C20.625 43.9687 19.7812 43.125 18.75 43.125ZM30 20.625C31.0312 20.625 31.875 19.7812 31.875 18.75C31.875 17.7187 31.0312 16.875 30 16.875C28.9687 16.875 28.125 17.7187 28.125 18.75C28.125 19.7812 28.9687 20.625 30 20.625ZM45 26.25C42.9375 26.25 41.25 27.9375 41.25 30C41.25 32.0625 42.9375 33.75 45 33.75C47.0625 33.75 48.75 32.0625 48.75 30C48.75 27.9375 47.0625 26.25 45 26.25ZM45 20.625C46.0312 20.625 46.875 19.7812 46.875 18.75C46.875 17.7187 46.0312 16.875 45 16.875C43.9687 16.875 43.125 17.7187 43.125 18.75C43.125 19.7812 43.9687 20.625 45 20.625ZM56.25 43.125C55.2187 43.125 54.375 43.9687 54.375 45C54.375 46.0312 55.2187 46.875 56.25 46.875C57.2812 46.875 58.125 46.0312 58.125 45C58.125 43.9687 57.2812 43.125 56.25 43.125ZM56.25 28.125C55.2187 28.125 54.375 28.9687 54.375 30C54.375 31.0312 55.2187 31.875 56.25 31.875C57.2812 31.875 58.125 31.0312 58.125 30C58.125 28.9687 57.2812 28.125 56.25 28.125ZM37.5 0C16.7812 0 0 16.7812 0 37.5C0 58.2187 16.7812 75 37.5 75C58.2187 75 75 58.2187 75 37.5C75 16.7812 58.2187 0 37.5 0ZM37.5 67.5C20.925 67.5 7.5 54.075 7.5 37.5C7.5 20.925 20.925 7.5 37.5 7.5C54.075 7.5 67.5 20.925 67.5 37.5C67.5 54.075 54.075 67.5 37.5 67.5ZM45 54.375C43.9687 54.375 43.125 55.2187 43.125 56.25C43.125 57.2812 43.9687 58.125 45 58.125C46.0312 58.125 46.875 57.2812 46.875 56.25C46.875 55.2187 46.0312 54.375 45 54.375ZM45 41.25C42.9375 41.25 41.25 42.9375 41.25 45C41.25 47.0625 42.9375 48.75 45 48.75C47.0625 48.75 48.75 47.0625 48.75 45C48.75 42.9375 47.0625 41.25 45 41.25Z" fill="#B6A4E6"/>
</svg>
