<svg width="819" height="387" viewBox="0 0 819 387" fill="none" xmlns="http://www.w3.org/2000/svg">
<g style="mix-blend-mode:overlay">
<path d="M1.02197 30.6154V1H25.049M1.02197 30.6154V60.2308M1.02197 30.6154H25.049M1.02197 60.2308V89.8462M1.02197 60.2308H25.049M1.02197 89.8462V119.462M1.02197 89.8462H25.049M1.02197 119.462V149.077M1.02197 119.462H25.049M1.02197 149.077V178.692M1.02197 149.077H25.049M1.02197 178.692V208.308M1.02197 178.692H25.049M1.02197 208.308V237.923M1.02197 208.308H25.049M1.02197 237.923V267.538M1.02197 237.923H25.049M1.02197 267.538V297.154M1.02197 267.538H25.049M1.02197 297.154V326.769M1.02197 297.154H25.049M1.02197 326.769V356.385M1.02197 326.769H25.049M1.02197 356.385V386H25.049M1.02197 356.385H25.049M25.049 1V30.6154M25.049 1H49.076M25.049 30.6154V60.2308M25.049 30.6154H49.076M25.049 60.2308V89.8462M25.049 60.2308H49.076M25.049 89.8462V119.462M25.049 89.8462H49.076M25.049 119.462V149.077M25.049 119.462H49.076M25.049 149.077V178.692M25.049 149.077H49.076M25.049 178.692V208.308M25.049 178.692H49.076M25.049 208.308V237.923M25.049 208.308H49.076M25.049 237.923V267.538M25.049 237.923H49.076M25.049 267.538V297.154M25.049 267.538H49.076M25.049 297.154V326.769M25.049 297.154H49.076M25.049 326.769V356.385M25.049 326.769H49.076M25.049 356.385V386M25.049 356.385H49.076M25.049 386H49.076M49.076 1V30.6154M49.076 1H73.103M49.076 30.6154V60.2308M49.076 30.6154H73.103M49.076 60.2308V89.8462M49.076 60.2308H73.103M49.076 89.8462V119.462M49.076 89.8462H73.103M49.076 119.462V149.077M49.076 119.462H73.103M49.076 149.077V178.692M49.076 149.077H73.103M49.076 178.692V208.308M49.076 178.692H73.103M49.076 208.308V237.923M49.076 208.308H73.103M49.076 237.923V267.538M49.076 237.923H73.103M49.076 267.538V297.154M49.076 267.538H73.103M49.076 297.154V326.769M49.076 297.154H73.103M49.076 326.769V356.385M49.076 326.769H73.103M49.076 356.385V386M49.076 356.385H73.103M49.076 386H73.103M73.103 1V30.6154M73.103 1H97.1301M73.103 30.6154V60.2308M73.103 30.6154H97.1301M73.103 60.2308V89.8462M73.103 60.2308H97.1301M73.103 89.8462V119.462M73.103 89.8462H97.1301M73.103 119.462V149.077M73.103 119.462H97.1301M73.103 149.077V178.692M73.103 149.077H97.1301M73.103 178.692V208.308M73.103 178.692H97.1301M73.103 208.308V237.923M73.103 208.308H97.1301M73.103 237.923V267.538M73.103 237.923H97.1301M73.103 267.538V297.154M73.103 267.538H97.1301M73.103 297.154V326.769M73.103 297.154H97.1301M73.103 326.769V356.385M73.103 326.769H97.1301M73.103 356.385V386M73.103 356.385H97.1301M73.103 386H97.1301M97.1301 1V30.6154M97.1301 1H121.157M97.1301 30.6154V60.2308M97.1301 30.6154H121.157M97.1301 60.2308V89.8462M97.1301 60.2308H121.157M97.1301 89.8462V119.462M97.1301 89.8462H121.157M97.1301 119.462V149.077M97.1301 119.462H121.157M97.1301 149.077V178.692M97.1301 149.077H121.157M97.1301 178.692V208.308M97.1301 178.692H121.157M97.1301 208.308V237.923M97.1301 208.308H121.157M97.1301 237.923V267.538M97.1301 237.923H121.157M97.1301 267.538V297.154M97.1301 267.538H121.157M97.1301 297.154V326.769M97.1301 297.154H121.157M97.1301 326.769V356.385M97.1301 326.769H121.157M97.1301 356.385V386M97.1301 356.385H121.157M97.1301 386H121.157M121.157 1V30.6154M121.157 1H145.184M121.157 30.6154V60.2308M121.157 30.6154H145.184M121.157 60.2308V89.8462M121.157 60.2308H145.184M121.157 89.8462V119.462M121.157 89.8462H145.184M121.157 119.462V149.077M121.157 119.462H145.184M121.157 149.077V178.692M121.157 149.077H145.184M121.157 178.692V208.308M121.157 178.692H145.184M121.157 208.308V237.923M121.157 208.308H145.184M121.157 237.923V267.538M121.157 237.923H145.184M121.157 267.538V297.154M121.157 267.538H145.184M121.157 297.154V326.769M121.157 297.154H145.184M121.157 326.769V356.385M121.157 326.769H145.184M121.157 356.385V386M121.157 356.385H145.184M121.157 386H145.184M145.184 1V30.6154M145.184 1H169.211M145.184 30.6154V60.2308M145.184 30.6154H169.211M145.184 60.2308V89.8462M145.184 60.2308H169.211M145.184 89.8462V119.462M145.184 89.8462H169.211M145.184 119.462V149.077M145.184 119.462H169.211M145.184 149.077V178.692M145.184 149.077H169.211M145.184 178.692V208.308M145.184 178.692H169.211M145.184 208.308V237.923M145.184 208.308H169.211M145.184 237.923V267.538M145.184 237.923H169.211M145.184 267.538V297.154M145.184 267.538H169.211M145.184 297.154V326.769M145.184 297.154H169.211M145.184 326.769V356.385M145.184 326.769H169.211M145.184 356.385V386M145.184 356.385H169.211M145.184 386H169.211M169.211 1V30.6154M169.211 1H193.238M169.211 30.6154V60.2308M169.211 30.6154H193.238M169.211 60.2308V89.8462M169.211 60.2308H193.238M169.211 89.8462V119.462M169.211 89.8462H193.238M169.211 119.462V149.077M169.211 119.462H193.238M169.211 149.077V178.692M169.211 149.077H193.238M169.211 178.692V208.308M169.211 178.692H193.238M169.211 208.308V237.923M169.211 208.308H193.238M169.211 237.923V267.538M169.211 237.923H193.238M169.211 267.538V297.154M169.211 267.538H193.238M169.211 297.154V326.769M169.211 297.154H193.238M169.211 326.769V356.385M169.211 326.769H193.238M169.211 356.385V386M169.211 356.385H193.238M169.211 386H193.238M193.238 1V30.6154M193.238 1H217.265M193.238 30.6154V60.2308M193.238 30.6154H217.265M193.238 60.2308V89.8462M193.238 60.2308H217.265M193.238 89.8462V119.462M193.238 89.8462H217.265M193.238 119.462V149.077M193.238 119.462H217.265M193.238 149.077V178.692M193.238 149.077H217.265M193.238 178.692V208.308M193.238 178.692H217.265M193.238 208.308V237.923M193.238 208.308H217.265M193.238 237.923V267.538M193.238 237.923H217.265M193.238 267.538V297.154M193.238 267.538H217.265M193.238 297.154V326.769M193.238 297.154H217.265M193.238 326.769V356.385M193.238 326.769H217.265M193.238 356.385V386M193.238 356.385H217.265M193.238 386H217.265M217.265 1V30.6154M217.265 1H241.292M217.265 30.6154V60.2308M217.265 30.6154H241.292M217.265 60.2308V89.8462M217.265 60.2308H241.292M217.265 89.8462V119.462M217.265 89.8462H241.292M217.265 119.462V149.077M217.265 119.462H241.292M217.265 149.077V178.692M217.265 149.077H241.292M217.265 178.692V208.308M217.265 178.692H241.292M217.265 208.308V237.923M217.265 208.308H241.292M217.265 237.923V267.538M217.265 237.923H241.292M217.265 267.538V297.154M217.265 267.538H241.292M217.265 297.154V326.769M217.265 297.154H241.292M217.265 326.769V356.385M217.265 326.769H241.292M217.265 356.385V386M217.265 356.385H241.292M217.265 386H241.292M241.292 1V30.6154M241.292 1H265.319M241.292 30.6154V60.2308M241.292 30.6154H265.319M241.292 60.2308V89.8462M241.292 60.2308H265.319M241.292 89.8462V119.462M241.292 89.8462H265.319M241.292 119.462V149.077M241.292 119.462H265.319M241.292 149.077V178.692M241.292 149.077H265.319M241.292 178.692V208.308M241.292 178.692H265.319M241.292 208.308V237.923M241.292 208.308H265.319M241.292 237.923V267.538M241.292 237.923H265.319M241.292 267.538V297.154M241.292 267.538H265.319M241.292 297.154V326.769M241.292 297.154H265.319M241.292 326.769V356.385M241.292 326.769H265.319M241.292 356.385V386M241.292 356.385H265.319M241.292 386H265.319M265.319 1V30.6154M265.319 1H289.346M265.319 30.6154V60.2308M265.319 30.6154H289.346M265.319 60.2308V89.8462M265.319 60.2308H289.346M265.319 89.8462V119.462M265.319 89.8462H289.346M265.319 119.462V149.077M265.319 119.462H289.346M265.319 149.077V178.692M265.319 149.077H289.346M265.319 178.692V208.308M265.319 178.692H289.346M265.319 208.308V237.923M265.319 208.308H289.346M265.319 237.923V267.538M265.319 237.923H289.346M265.319 267.538V297.154M265.319 267.538H289.346M265.319 297.154V326.769M265.319 297.154H289.346M265.319 326.769V356.385M265.319 326.769H289.346M265.319 356.385V386M265.319 356.385H289.346M265.319 386H289.346M289.346 1V30.6154M289.346 1H313.373M289.346 30.6154V60.2308M289.346 30.6154H313.373M289.346 60.2308V89.8462M289.346 60.2308H313.373M289.346 89.8462V119.462M289.346 89.8462H313.373M289.346 119.462V149.077M289.346 119.462H313.373M289.346 149.077V178.692M289.346 149.077H313.373M289.346 178.692V208.308M289.346 178.692H313.373M289.346 208.308V237.923M289.346 208.308H313.373M289.346 237.923V267.538M289.346 237.923H313.373M289.346 267.538V297.154M289.346 267.538H313.373M289.346 297.154V326.769M289.346 297.154H313.373M289.346 326.769V356.385M289.346 326.769H313.373M289.346 356.385V386M289.346 356.385H313.373M289.346 386H313.373M313.373 1V30.6154M313.373 1H337.4M313.373 30.6154V60.2308M313.373 30.6154H337.4M313.373 60.2308V89.8462M313.373 60.2308H337.4M313.373 89.8462V119.462M313.373 89.8462H337.4M313.373 119.462V149.077M313.373 119.462H337.4M313.373 149.077V178.692M313.373 149.077H337.4M313.373 178.692V208.308M313.373 178.692H337.4M313.373 208.308V237.923M313.373 208.308H337.4M313.373 237.923V267.538M313.373 237.923H337.4M313.373 267.538V297.154M313.373 267.538H337.4M313.373 297.154V326.769M313.373 297.154H337.4M313.373 326.769V356.385M313.373 326.769H337.4M313.373 356.385V386M313.373 356.385H337.4M313.373 386H337.4M337.4 1V30.6154M337.4 1H361.427M337.4 30.6154V60.2308M337.4 30.6154H361.427M337.4 60.2308V89.8462M337.4 60.2308H361.427M337.4 89.8462V119.462M337.4 89.8462H361.427M337.4 119.462V149.077M337.4 119.462H361.427M337.4 149.077V178.692M337.4 149.077H361.427M337.4 178.692V208.308M337.4 178.692H361.427M337.4 208.308V237.923M337.4 208.308H361.427M337.4 237.923V267.538M337.4 237.923H361.427M337.4 267.538V297.154M337.4 267.538H361.427M337.4 297.154V326.769M337.4 297.154H361.427M337.4 326.769V356.385M337.4 326.769H361.427M337.4 356.385V386M337.4 356.385H361.427M337.4 386H361.427M361.427 1V30.6154M361.427 1H385.454M361.427 30.6154V60.2308M361.427 30.6154H385.454M361.427 60.2308V89.8462M361.427 60.2308H385.454M361.427 89.8462V119.462M361.427 89.8462H385.454M361.427 119.462V149.077M361.427 119.462H385.454M361.427 149.077V178.692M361.427 149.077H385.454M361.427 178.692V208.308M361.427 178.692H385.454M361.427 208.308V237.923M361.427 208.308H385.454M361.427 237.923V267.538M361.427 237.923H385.454M361.427 267.538V297.154M361.427 267.538H385.454M361.427 297.154V326.769M361.427 297.154H385.454M361.427 326.769V356.385M361.427 326.769H385.454M361.427 356.385V386M361.427 356.385H385.454M361.427 386H385.454M385.454 1V30.6154M385.454 1H409.481M385.454 30.6154V60.2308M385.454 30.6154H409.481M385.454 60.2308V89.8462M385.454 60.2308H409.481M385.454 89.8462V119.462M385.454 89.8462H409.481M385.454 119.462V149.077M385.454 119.462H409.481M385.454 149.077V178.692M385.454 149.077H409.481M385.454 178.692V208.308M385.454 178.692H409.481M385.454 208.308V237.923M385.454 208.308H409.481M385.454 237.923V267.538M385.454 237.923H409.481M385.454 267.538V297.154M385.454 267.538H409.481M385.454 297.154V326.769M385.454 297.154H409.481M385.454 326.769V356.385M385.454 326.769H409.481M385.454 356.385V386M385.454 356.385H409.481M385.454 386H409.481M409.481 1V30.6154M409.481 1H433.508M409.481 30.6154V60.2308M409.481 30.6154H433.508M409.481 60.2308V89.8462M409.481 60.2308H433.508M409.481 89.8462V119.462M409.481 89.8462H433.508M409.481 119.462V149.077M409.481 119.462H433.508M409.481 149.077V178.692M409.481 149.077H433.508M409.481 178.692V208.308M409.481 178.692H433.508M409.481 208.308V237.923M409.481 208.308H433.508M409.481 237.923V267.538M409.481 237.923H433.508M409.481 267.538V297.154M409.481 267.538H433.508M409.481 297.154V326.769M409.481 297.154H433.508M409.481 326.769V356.385M409.481 326.769H433.508M409.481 356.385V386M409.481 356.385H433.508M409.481 386H433.508M433.508 1V30.6154M433.508 1H457.535M433.508 30.6154V60.2308M433.508 30.6154H457.535M433.508 60.2308V89.8462M433.508 60.2308H457.535M433.508 89.8462V119.462M433.508 89.8462H457.535M433.508 119.462V149.077M433.508 119.462H457.535M433.508 149.077V178.692M433.508 149.077H457.535M433.508 178.692V208.308M433.508 178.692H457.535M433.508 208.308V237.923M433.508 208.308H457.535M433.508 237.923V267.538M433.508 237.923H457.535M433.508 267.538V297.154M433.508 267.538H457.535M433.508 297.154V326.769M433.508 297.154H457.535M433.508 326.769V356.385M433.508 326.769H457.535M433.508 356.385V386M433.508 356.385H457.535M433.508 386H457.535M457.535 1V30.6154M457.535 1H481.563M457.535 30.6154V60.2308M457.535 30.6154H481.563M457.535 60.2308V89.8462M457.535 60.2308H481.563M457.535 89.8462V119.462M457.535 89.8462H481.563M457.535 119.462V149.077M457.535 119.462H481.563M457.535 149.077V178.692M457.535 149.077H481.563M457.535 178.692V208.308M457.535 178.692H481.563M457.535 208.308V237.923M457.535 208.308H481.563M457.535 237.923V267.538M457.535 237.923H481.563M457.535 267.538V297.154M457.535 267.538H481.563M457.535 297.154V326.769M457.535 297.154H481.563M457.535 326.769V356.385M457.535 326.769H481.563M457.535 356.385V386M457.535 356.385H481.563M457.535 386H481.563M481.563 1V30.6154M481.563 1H505.59M481.563 30.6154V60.2308M481.563 30.6154H505.59M481.563 60.2308V89.8462M481.563 60.2308H505.59M481.563 89.8462V119.462M481.563 89.8462H505.59M481.563 119.462V149.077M481.563 119.462H505.59M481.563 149.077V178.692M481.563 149.077H505.59M481.563 178.692V208.308M481.563 178.692H505.59M481.563 208.308V237.923M481.563 208.308H505.59M481.563 237.923V267.538M481.563 237.923H505.59M481.563 267.538V297.154M481.563 267.538H505.59M481.563 297.154V326.769M481.563 297.154H505.59M481.563 326.769V356.385M481.563 326.769H505.59M481.563 356.385V386M481.563 356.385H505.59M481.563 386H505.59M505.59 1V30.6154M505.59 1H529.617M505.59 30.6154V60.2308M505.59 30.6154H529.617M505.59 60.2308V89.8462M505.59 60.2308H529.617M505.59 89.8462V119.462M505.59 89.8462H529.617M505.59 119.462V149.077M505.59 119.462H529.617M505.59 149.077V178.692M505.59 149.077H529.617M505.59 178.692V208.308M505.59 178.692H529.617M505.59 208.308V237.923M505.59 208.308H529.617M505.59 237.923V267.538M505.59 237.923H529.617M505.59 267.538V297.154M505.59 267.538H529.617M505.59 297.154V326.769M505.59 297.154H529.617M505.59 326.769V356.385M505.59 326.769H529.617M505.59 356.385V386M505.59 356.385H529.617M505.59 386H529.617M529.617 1V30.6154M529.617 1H553.644M529.617 30.6154V60.2308M529.617 30.6154H553.644M529.617 60.2308V89.8462M529.617 60.2308H553.644M529.617 89.8462V119.462M529.617 89.8462H553.644M529.617 119.462V149.077M529.617 119.462H553.644M529.617 149.077V178.692M529.617 149.077H553.644M529.617 178.692V208.308M529.617 178.692H553.644M529.617 208.308V237.923M529.617 208.308H553.644M529.617 237.923V267.538M529.617 237.923H553.644M529.617 267.538V297.154M529.617 267.538H553.644M529.617 297.154V326.769M529.617 297.154H553.644M529.617 326.769V356.385M529.617 326.769H553.644M529.617 356.385V386M529.617 356.385H553.644M529.617 386H553.644M553.644 1V30.6154M553.644 1H577.671M553.644 30.6154V60.2308M553.644 30.6154H577.671M553.644 60.2308V89.8462M553.644 60.2308H577.671M553.644 89.8462V119.462M553.644 89.8462H577.671M553.644 119.462V149.077M553.644 119.462H577.671M553.644 149.077V178.692M553.644 149.077H577.671M553.644 178.692V208.308M553.644 178.692H577.671M553.644 208.308V237.923M553.644 208.308H577.671M553.644 237.923V267.538M553.644 237.923H577.671M553.644 267.538V297.154M553.644 267.538H577.671M553.644 297.154V326.769M553.644 297.154H577.671M553.644 326.769V356.385M553.644 326.769H577.671M553.644 356.385V386M553.644 356.385H577.671M553.644 386H577.671M577.671 1V30.6154M577.671 1H601.698M577.671 30.6154V60.2308M577.671 30.6154H601.698M577.671 60.2308V89.8462M577.671 60.2308H601.698M577.671 89.8462V119.462M577.671 89.8462H601.698M577.671 119.462V149.077M577.671 119.462H601.698M577.671 149.077V178.692M577.671 149.077H601.698M577.671 178.692V208.308M577.671 178.692H601.698M577.671 208.308V237.923M577.671 208.308H601.698M577.671 237.923V267.538M577.671 237.923H601.698M577.671 267.538V297.154M577.671 267.538H601.698M577.671 297.154V326.769M577.671 297.154H601.698M577.671 326.769V356.385M577.671 326.769H601.698M577.671 356.385V386M577.671 356.385H601.698M577.671 386H601.698M601.698 1V30.6154M601.698 1H625.725M601.698 30.6154V60.2308M601.698 30.6154H625.725M601.698 60.2308V89.8462M601.698 60.2308H625.725M601.698 89.8462V119.462M601.698 89.8462H625.725M601.698 119.462V149.077M601.698 119.462H625.725M601.698 149.077V178.692M601.698 149.077H625.725M601.698 178.692V208.308M601.698 178.692H625.725M601.698 208.308V237.923M601.698 208.308H625.725M601.698 237.923V267.538M601.698 237.923H625.725M601.698 267.538V297.154M601.698 267.538H625.725M601.698 297.154V326.769M601.698 297.154H625.725M601.698 326.769V356.385M601.698 326.769H625.725M601.698 356.385V386M601.698 356.385H625.725M601.698 386H625.725M625.725 1V30.6154M625.725 1H649.752M625.725 30.6154V60.2308M625.725 30.6154H649.752M625.725 60.2308V89.8462M625.725 60.2308H649.752M625.725 89.8462V119.462M625.725 89.8462H649.752M625.725 119.462V149.077M625.725 119.462H649.752M625.725 149.077V178.692M625.725 149.077H649.752M625.725 178.692V208.308M625.725 178.692H649.752M625.725 208.308V237.923M625.725 208.308H649.752M625.725 237.923V267.538M625.725 237.923H649.752M625.725 267.538V297.154M625.725 267.538H649.752M625.725 297.154V326.769M625.725 297.154H649.752M625.725 326.769V356.385M625.725 326.769H649.752M625.725 356.385V386M625.725 356.385H649.752M625.725 386H649.752M649.752 1V30.6154M649.752 1H673.779M649.752 30.6154V60.2308M649.752 30.6154H673.779M649.752 60.2308V89.8462M649.752 60.2308H673.779M649.752 89.8462V119.462M649.752 89.8462H673.779M649.752 119.462V149.077M649.752 119.462H673.779M649.752 149.077V178.692M649.752 149.077H673.779M649.752 178.692V208.308M649.752 178.692H673.779M649.752 208.308V237.923M649.752 208.308H673.779M649.752 237.923V267.538M649.752 237.923H673.779M649.752 267.538V297.154M649.752 267.538H673.779M649.752 297.154V326.769M649.752 297.154H673.779M649.752 326.769V356.385M649.752 326.769H673.779M649.752 356.385V386M649.752 356.385H673.779M649.752 386H673.779M673.779 1V30.6154M673.779 1H697.806M673.779 30.6154V60.2308M673.779 30.6154H697.806M673.779 60.2308V89.8462M673.779 60.2308H697.806M673.779 89.8462V119.462M673.779 89.8462H697.806M673.779 119.462V149.077M673.779 119.462H697.806M673.779 149.077V178.692M673.779 149.077H697.806M673.779 178.692V208.308M673.779 178.692H697.806M673.779 208.308V237.923M673.779 208.308H697.806M673.779 237.923V267.538M673.779 237.923H697.806M673.779 267.538V297.154M673.779 267.538H697.806M673.779 297.154V326.769M673.779 297.154H697.806M673.779 326.769V356.385M673.779 326.769H697.806M673.779 356.385V386M673.779 356.385H697.806M673.779 386H697.806M697.806 1V30.6154M697.806 1H721.833M697.806 30.6154V60.2308M697.806 30.6154H721.833M697.806 60.2308V89.8462M697.806 60.2308H721.833M697.806 89.8462V119.462M697.806 89.8462H721.833M697.806 119.462V149.077M697.806 119.462H721.833M697.806 149.077V178.692M697.806 149.077H721.833M697.806 178.692V208.308M697.806 178.692H721.833M697.806 208.308V237.923M697.806 208.308H721.833M697.806 237.923V267.538M697.806 237.923H721.833M697.806 267.538V297.154M697.806 267.538H721.833M697.806 297.154V326.769M697.806 297.154H721.833M697.806 326.769V356.385M697.806 326.769H721.833M697.806 356.385V386M697.806 356.385H721.833M697.806 386H721.833M721.833 1V30.6154M721.833 1H745.86M721.833 30.6154V60.2308M721.833 30.6154H745.86M721.833 60.2308V89.8462M721.833 60.2308H745.86M721.833 89.8462V119.462M721.833 89.8462H745.86M721.833 119.462V149.077M721.833 119.462H745.86M721.833 149.077V178.692M721.833 149.077H745.86M721.833 178.692V208.308M721.833 178.692H745.86M721.833 208.308V237.923M721.833 208.308H745.86M721.833 237.923V267.538M721.833 237.923H745.86M721.833 267.538V297.154M721.833 267.538H745.86M721.833 297.154V326.769M721.833 297.154H745.86M721.833 326.769V356.385M721.833 326.769H745.86M721.833 356.385V386M721.833 356.385H745.86M721.833 386H745.86M745.86 1V30.6154M745.86 1H769.887M745.86 30.6154V60.2308M745.86 30.6154H769.887M745.86 60.2308V89.8462M745.86 60.2308H769.887M745.86 89.8462V119.462M745.86 89.8462H769.887M745.86 119.462V149.077M745.86 119.462H769.887M745.86 149.077V178.692M745.86 149.077H769.887M745.86 178.692V208.308M745.86 178.692H769.887M745.86 208.308V237.923M745.86 208.308H769.887M745.86 237.923V267.538M745.86 237.923H769.887M745.86 267.538V297.154M745.86 267.538H769.887M745.86 297.154V326.769M745.86 297.154H769.887M745.86 326.769V356.385M745.86 326.769H769.887M745.86 356.385V386M745.86 356.385H769.887M745.86 386H769.887M769.887 1V30.6154M769.887 1H793.914M769.887 30.6154V60.2308M769.887 30.6154H793.914M769.887 60.2308V89.8462M769.887 60.2308H793.914M769.887 89.8462V119.462M769.887 89.8462H793.914M769.887 119.462V149.077M769.887 119.462H793.914M769.887 149.077V178.692M769.887 149.077H793.914M769.887 178.692V208.308M769.887 178.692H793.914M769.887 208.308V237.923M769.887 208.308H793.914M769.887 237.923V267.538M769.887 237.923H793.914M769.887 267.538V297.154M769.887 267.538H793.914M769.887 297.154V326.769M769.887 297.154H793.914M769.887 326.769V356.385M769.887 326.769H793.914M769.887 356.385V386M769.887 356.385H793.914M769.887 386H793.914M793.914 1V30.6154M793.914 1H817.941V30.6154M793.914 30.6154V60.2308M793.914 30.6154H817.941M793.914 60.2308V89.8462M793.914 60.2308H817.941M793.914 89.8462V119.462M793.914 89.8462H817.941M793.914 119.462V149.077M793.914 119.462H817.941M793.914 149.077V178.692M793.914 149.077H817.941M793.914 178.692V208.308M793.914 178.692H817.941M793.914 208.308V237.923M793.914 208.308H817.941M793.914 237.923V267.538M793.914 237.923H817.941M793.914 267.538V297.154M793.914 267.538H817.941M793.914 297.154V326.769M793.914 297.154H817.941M793.914 326.769V356.385M793.914 326.769H817.941M793.914 356.385V386M793.914 356.385H817.941M793.914 386H817.941V356.385M817.941 30.6154V60.2308M817.941 60.2308V89.8462M817.941 89.8462V119.462M817.941 119.462V149.077M817.941 149.077V178.692M817.941 178.692V208.308M817.941 208.308V237.923M817.941 237.923V267.538M817.941 267.538V297.154M817.941 297.154V326.769M817.941 326.769V356.385" stroke="url(#paint0_linear_483_2636)" stroke-opacity="0.5" stroke-width="1.74474"/>
</g>
<defs>
<linearGradient id="paint0_linear_483_2636" x1="817.941" y1="1.00002" x2="557.082" y2="222.408" gradientUnits="userSpaceOnUse">
<stop stop-color="white"/>
<stop offset="1" stop-color="white" stop-opacity="0"/>
</linearGradient>
</defs>
</svg>
