<svg width="110" height="110" viewBox="0 0 110 110" fill="none" xmlns="http://www.w3.org/2000/svg">
<g filter="url(#filter0_d_311_2429)">
<path d="M44.4983 37.0011H65.495C73.231 37.0011 79.4973 43.2681 79.4973 51.0052C79.4973 58.7335 73.2311 64.999 65.495 64.999H44.4983C36.7709 64.999 30.5027 58.7335 30.5027 51.0052C30.5027 43.2681 36.7709 37.0011 44.4983 37.0011ZM55.0009 54.5035H61.997V61.5005H69.0015V54.5035H75.9976V47.498H69.0015V40.5011H61.997V47.498H55.0009V54.5035ZM48.0032 47.4981C49.9342 47.4981 51.5012 45.9361 51.5012 43.9996C51.5012 42.0684 49.9342 40.5012 48.0032 40.5012C46.0653 40.5012 44.4983 42.0684 44.4983 43.9996C44.4983 45.936 46.0653 47.4981 48.0032 47.4981ZM40.9985 58.002C42.9363 58.002 44.4982 56.4331 44.4982 54.5035C44.4982 52.5654 42.9363 51.0051 40.9985 51.0051C39.0692 51.0051 37.5005 52.5654 37.5005 54.5035C37.5005 56.4331 39.0693 58.002 40.9985 58.002ZM34.0025 16H75.9976C83.7251 16 90 22.267 90 30.0042V72.006C90 79.7327 83.7251 86 75.9976 86H34.0024C26.2665 86 20 79.7328 20 72.006V30.0042C20.0001 22.267 26.2665 16 34.0025 16ZM27.0047 68.5059C27.0047 74.3031 31.7041 79.0031 37.5005 79.0031H72.4995C78.2977 79.0031 82.9954 74.3031 82.9954 68.5059V33.5026C82.9954 27.7037 78.2977 22.9987 72.4995 22.9987H37.5005C31.7041 22.9987 27.0047 27.7037 27.0047 33.5026V68.5059Z" fill="#B6A4E6"/>
</g>
<defs>
<filter id="filter0_d_311_2429" x="0" y="0" width="110" height="110" filterUnits="userSpaceOnUse" color-interpolation-filters="sRGB">
<feFlood flood-opacity="0" result="BackgroundImageFix"/>
<feColorMatrix in="SourceAlpha" type="matrix" values="0 0 0 0 0 0 0 0 0 0 0 0 0 0 0 0 0 0 127 0" result="hardAlpha"/>
<feOffset dy="4"/>
<feGaussianBlur stdDeviation="10"/>
<feComposite in2="hardAlpha" operator="out"/>
<feColorMatrix type="matrix" values="0 0 0 0 0 0 0 0 0 0 0 0 0 0 0 0 0 0 0.25 0"/>
<feBlend mode="normal" in2="BackgroundImageFix" result="effect1_dropShadow_311_2429"/>
<feBlend mode="normal" in="SourceGraphic" in2="effect1_dropShadow_311_2429" result="shape"/>
</filter>
</defs>
</svg>
