<svg width="110" height="109" viewBox="0 0 110 109" fill="none" xmlns="http://www.w3.org/2000/svg">
<g filter="url(#filter0_d_311_2423)">
<path d="M68.999 50.2054C68.999 57.7678 62.7335 63.8937 54.9948 63.8937C47.2698 63.8937 41.001 57.7678 41.001 50.2054C41.001 42.6512 47.2698 36.5272 54.9948 36.5272C62.7335 36.5272 68.999 42.6513 68.999 50.2054ZM90 29.6782V70.7328C90 78.2937 83.7346 84.421 75.9958 84.421H33.9938C26.2688 84.421 20 78.2936 20 70.7328V29.6782C20 22.124 26.2689 16 33.9938 16H75.9958C83.7346 15.9999 90 22.124 90 29.6782ZM83.003 33.106C83.003 27.4313 78.2963 22.839 72.4957 22.839H37.494C31.6968 22.839 26.9968 27.4313 26.9968 33.106V67.3133C26.9968 72.9814 31.6968 77.5804 37.494 77.5804H72.4958C78.2964 77.5804 83.003 72.9814 83.003 67.3133V33.106H83.003Z" fill="#B6A4E6"/>
</g>
<defs>
<filter id="filter0_d_311_2423" x="0" y="0" width="110" height="108.421" filterUnits="userSpaceOnUse" color-interpolation-filters="sRGB">
<feFlood flood-opacity="0" result="BackgroundImageFix"/>
<feColorMatrix in="SourceAlpha" type="matrix" values="0 0 0 0 0 0 0 0 0 0 0 0 0 0 0 0 0 0 127 0" result="hardAlpha"/>
<feOffset dy="4"/>
<feGaussianBlur stdDeviation="10"/>
<feComposite in2="hardAlpha" operator="out"/>
<feColorMatrix type="matrix" values="0 0 0 0 0 0 0 0 0 0 0 0 0 0 0 0 0 0 0.25 0"/>
<feBlend mode="normal" in2="BackgroundImageFix" result="effect1_dropShadow_311_2423"/>
<feBlend mode="normal" in="SourceGraphic" in2="effect1_dropShadow_311_2423" result="shape"/>
</filter>
</defs>
</svg>
