<svg width="70" height="70" viewBox="0 0 70 70" fill="none" xmlns="http://www.w3.org/2000/svg">
<path d="M45.5024 49.001L49.0019 56.0005H20.9979L24.5043 49.001C24.5043 49.001 27.3889 52.4939 35 52.5007C42.905 52.5077 45.5024 49.001 45.5024 49.001ZM35 28.0054C33.0691 28.0054 31.5003 29.5708 31.5003 31.5017C31.5003 33.4328 33.0691 35.0016 35 35.0016C36.931 35.0016 38.4961 33.4328 38.4961 31.5017C38.4961 29.5709 36.931 28.0054 35 28.0054ZM70 14.0027V56.0006C70 63.7352 63.7319 70 55.9944 70H14.002C6.2679 70 0 63.7352 0 56.0006V14.0027C0 6.27509 6.2679 0 14.002 0H55.9944C63.7319 0 70 6.27509 70 14.0027ZM62.9938 17.4991C62.9938 11.7024 58.298 7.00642 52.4983 7.00642H17.4983C11.702 7.00642 7.00617 11.7024 7.00617 17.4991V52.5008C7.00617 58.2975 11.702 63.0037 17.4983 63.0037H52.4983C58.298 63.0037 62.9938 58.2975 62.9938 52.5008V17.4991ZM52.4983 31.5018C52.4983 41.1675 44.6617 49.0011 35 49.0011C25.335 49.0011 17.4983 41.1675 17.4983 31.5018C17.4983 21.8362 25.335 14.0027 35 14.0027C44.6617 14.0027 52.4983 21.8362 52.4983 31.5018ZM45.5024 31.5018C45.5024 25.7053 40.7963 20.9989 35 20.9989C29.2002 20.9989 24.5044 25.7053 24.5044 31.5018C24.5044 37.2984 29.2002 42.0049 35 42.0049C40.7963 42.0048 45.5024 37.2984 45.5024 31.5018Z" fill="#B6A4E6"/>
</svg>

