<svg width="173" height="50" viewBox="0 0 173 50" fill="none" xmlns="http://www.w3.org/2000/svg">
<path fill-rule="evenodd" clip-rule="evenodd" d="M27.4007 10.7073C27.1782 10.5308 26.902 10.4326 26.6154 10.4305H5.22656C8.46732 5.99411 13.064 2.70473 18.3453 1.07812L28.2761 10.829C27.9871 10.7798 27.6952 10.7392 27.4007 10.7073Z" fill="#230346"/>
<path fill-rule="evenodd" clip-rule="evenodd" d="M17.9644 12.9316C16.6258 13.7949 15.4382 14.8723 14.4501 16.1153L0.907093 29.5216C0.641104 28.0305 0.504667 26.5179 0.5 25.0006C0.51553 20.7781 1.5893 16.6289 3.62039 12.9316H17.9644Z" fill="#230346"/>
<path fill-rule="evenodd" clip-rule="evenodd" d="M1.60254 32.3883C3.30489 37.7212 6.72092 42.3273 11.2971 45.5029V22.7305L1.60254 32.3883Z" fill="#230346"/>
<path fill-rule="evenodd" clip-rule="evenodd" d="M25.7498 49.9993C21.5927 49.9813 17.5039 48.9654 13.8262 47.041V33.3223C14.5927 34.4441 15.5125 35.4528 16.5554 36.3184C16.5977 36.3796 16.6456 36.4369 16.6985 36.4896L29.7727 49.6925C28.4427 49.8957 27.0979 49.9985 25.7498 49.9993Z" fill="#230346"/>
<path fill-rule="evenodd" clip-rule="evenodd" d="M25.8215 39.6613C25.8536 39.6613 25.8857 39.6612 25.9178 39.6609C25.9862 39.6743 26.0561 39.6811 26.1266 39.6811H46.258C42.9027 44.2223 38.1197 47.5458 32.6393 49.0912L23.0371 39.3945C23.9383 39.5696 24.8692 39.6613 25.8215 39.6613Z" fill="#230346"/>
<path fill-rule="evenodd" clip-rule="evenodd" d="M33.9404 37.1805C35.2233 36.3137 36.3601 35.2473 37.3064 34.0258L50.7184 20.8184C50.9461 22.1995 51.063 23.5979 51.0673 25.0003C51.0516 29.2653 49.9563 33.4553 47.8854 37.1805H33.9404Z" fill="#230346"/>
<path fill-rule="evenodd" clip-rule="evenodd" d="M50.0832 17.9929C48.4304 12.5309 44.9915 7.80415 40.3486 4.55273V27.6395L50.0832 17.9929Z" fill="#230346"/>
<path fill-rule="evenodd" clip-rule="evenodd" d="M34.8052 13.7339L34.8025 13.7325C35.9646 14.6484 36.9835 15.7382 37.8198 16.9625V2.99947C34.1189 1.04695 29.9981 0.0165708 25.8082 0C25.0581 0.000821466 24.3091 0.0330862 23.5631 0.0965434C22.7916 0.194427 22.0244 0.325475 21.2637 0.489394L33.3947 12.3636C33.511 12.4757 34.8052 13.7339 34.8052 13.7339Z" fill="#230346"/>
<path fill-rule="evenodd" clip-rule="evenodd" d="M28.522 20.797C27.6948 20.2012 26.7191 19.877 25.7177 19.8652C24.3664 19.8651 23.0696 20.4277 22.1088 21.4308C21.148 22.4338 20.6008 23.7964 20.5859 25.2228C20.586 26.2799 20.8823 27.3133 21.4375 28.193C21.9928 29.0727 22.7821 29.7594 23.7063 30.1666C24.6304 30.5738 25.648 30.6833 26.631 30.4813C27.6139 30.2794 28.5183 29.775 29.2303 29.0317C29.9423 28.2884 30.4301 27.3393 30.6323 26.304C30.8344 25.2687 30.7419 24.1934 30.3664 23.2135C29.9909 22.2335 29.3492 21.3927 28.522 20.797ZM23.8927 23.0522V27.5489C23.8927 27.8797 24.2536 28.084 24.5373 27.9138L28.2844 25.6655C28.56 25.5002 28.56 25.1009 28.2844 24.9356L24.5373 22.6873C24.2536 22.5171 23.8927 22.7214 23.8927 23.0522Z" fill="#230346"/>
<path d="M25.649 32.2217C24.2713 32.2054 22.9292 31.7821 21.7915 31.0049C20.6538 30.2277 19.7715 29.1313 19.2554 27.8538C18.7394 26.5763 18.6127 25.1747 18.8914 23.8253C19.1701 22.476 19.8417 21.2393 20.8217 20.2707C21.8016 19.3022 23.0461 18.6451 24.3986 18.3822C25.7511 18.1193 27.1511 18.2624 28.4225 18.7933C29.6939 19.3242 30.7799 20.2194 31.5438 21.3661C32.3076 22.5127 32.7152 23.8597 32.7153 25.2375C32.711 26.1604 32.5247 27.0734 32.1671 27.9242C31.8094 28.7749 31.2875 29.5468 30.6311 30.1955C29.9747 30.8443 29.1968 31.3572 28.3419 31.7049C27.487 32.0525 26.5719 32.2281 25.649 32.2217ZM25.649 20.3076C24.6765 20.3189 23.7291 20.6177 22.926 21.1663C22.1228 21.7148 21.4999 22.4887 21.1356 23.3904C20.7712 24.2922 20.6818 25.2816 20.8784 26.2341C21.0751 27.1866 21.5491 28.0596 22.2408 28.7434C22.9325 29.4271 23.811 29.8909 24.7657 30.0766C25.7204 30.2622 26.7087 30.1612 27.6062 29.7865C28.5037 29.4117 29.2703 28.7798 29.8095 27.9704C30.3487 27.161 30.6364 26.2101 30.6365 25.2375C30.6235 23.9241 30.092 22.669 29.1579 21.7456C28.2237 20.8222 26.9625 20.3054 25.649 20.3076Z" fill="#230346"/>
<circle cx="25.6611" cy="25.3584" r="9.42088" stroke="#230346" stroke-width="0.332053"/>
<path d="M71.2474 20.16C70.1807 20.16 69.1607 20 68.1874 19.68C67.214 19.3467 66.4474 18.92 65.8874 18.4L66.6274 16.84C67.1607 17.3067 67.8407 17.6933 68.6674 18C69.494 18.3067 70.354 18.46 71.2474 18.46C72.0607 18.46 72.7207 18.3667 73.2274 18.18C73.734 17.9933 74.1074 17.74 74.3474 17.42C74.5874 17.0867 74.7074 16.7133 74.7074 16.3C74.7074 15.82 74.5474 15.4333 74.2274 15.14C73.9207 14.8467 73.5141 14.6133 73.0074 14.44C72.514 14.2533 71.9674 14.0933 71.3674 13.96C70.7674 13.8267 70.1607 13.6733 69.5474 13.5C68.9474 13.3133 68.394 13.08 67.8874 12.8C67.394 12.52 66.994 12.1467 66.6874 11.68C66.3807 11.2 66.2274 10.5867 66.2274 9.84C66.2274 9.12 66.414 8.46 66.7874 7.86C67.174 7.24667 67.7607 6.76 68.5474 6.4C69.3474 6.02667 70.3607 5.84 71.5874 5.84C72.4007 5.84 73.2074 5.94667 74.0074 6.16C74.8074 6.37333 75.5007 6.68 76.0874 7.08L75.4274 8.68C74.8274 8.28 74.194 7.99333 73.5274 7.82C72.8607 7.63333 72.214 7.54 71.5874 7.54C70.8007 7.54 70.154 7.64 69.6474 7.84C69.1407 8.04 68.7674 8.30667 68.5274 8.64C68.3007 8.97333 68.1874 9.34667 68.1874 9.76C68.1874 10.2533 68.3407 10.6467 68.6474 10.94C68.9674 11.2333 69.374 11.4667 69.8674 11.64C70.374 11.8133 70.9274 11.9733 71.5274 12.12C72.1274 12.2533 72.7274 12.4067 73.3274 12.58C73.9407 12.7533 74.494 12.98 74.9874 13.26C75.4941 13.54 75.9007 13.9133 76.2074 14.38C76.5141 14.8467 76.6674 15.4467 76.6674 16.18C76.6674 16.8867 76.4741 17.5467 76.0874 18.16C75.7007 18.76 75.1007 19.2467 74.2874 19.62C73.4874 19.98 72.474 20.16 71.2474 20.16ZM85.1293 20.16C83.9559 20.16 82.9026 19.9067 81.9693 19.4C81.0359 18.8933 80.3026 18.2 79.7693 17.32C79.2359 16.4267 78.9693 15.4267 78.9693 14.32C78.9693 13.1867 79.2359 12.1867 79.7693 11.32C80.3026 10.44 81.0359 9.74667 81.9693 9.24C82.9026 8.73333 83.9559 8.48 85.1293 8.48C86.1026 8.48 86.9626 8.62667 87.7093 8.92C88.4559 9.21333 89.0893 9.66 89.6093 10.26L88.3693 11.52C87.9426 11.0533 87.4626 10.7133 86.9293 10.5C86.3959 10.2733 85.8159 10.16 85.1893 10.16C84.3759 10.16 83.6426 10.34 82.9893 10.7C82.3493 11.0467 81.8426 11.5333 81.4693 12.16C81.1093 12.7867 80.9293 13.5067 80.9293 14.32C80.9293 15.1067 81.1093 15.82 81.4693 16.46C81.8426 17.0867 82.3493 17.58 82.9893 17.94C83.6426 18.3 84.3759 18.48 85.1893 18.48C85.8159 18.48 86.3959 18.3667 86.9293 18.14C87.4626 17.9133 87.9426 17.5667 88.3693 17.1L89.6093 18.36C89.0893 18.96 88.4493 19.4133 87.6893 19.72C86.9426 20.0133 86.0893 20.16 85.1293 20.16ZM92.8168 20V8.64H97.4568C98.4568 8.64 99.3168 8.8 100.037 9.12C100.757 9.42667 101.317 9.88 101.717 10.48C102.117 11.0667 102.317 11.7867 102.317 12.64C102.317 13.4667 102.117 14.18 101.717 14.78C101.317 15.38 100.757 15.84 100.037 16.16C99.3168 16.4667 98.4568 16.62 97.4568 16.62H93.8968L94.7568 15.74V20H92.8168ZM100.417 20L97.4568 15.88H99.5568L102.517 20H100.417ZM94.7568 15.96L94.0168 15.04H97.3368C98.3234 15.04 99.0701 14.8333 99.5768 14.42C100.097 14.0067 100.357 13.4133 100.357 12.64C100.357 11.8667 100.097 11.2733 99.5768 10.86C99.0701 10.4467 98.3234 10.24 97.3368 10.24H94.0168L94.7568 9.32V15.96ZM107.634 13.44H113.614V15.02H107.634V13.44ZM107.954 18.38H114.534V20H106.014V8.64H114.314V10.24H107.954V18.38ZM119.641 13.44H125.621V15.02H119.641V13.44ZM119.961 18.38H126.541V20H118.021V8.64H126.321V10.24H119.961V18.38ZM130.027 20V8.64H131.627L138.927 17.6H138.187V8.64H140.127V20H138.527L131.207 11.04H131.967V20H130.027ZM67.1674 44V30H72.6274C73.8541 30 74.9007 30.1933 75.7674 30.58C76.634 30.9667 77.3007 31.5267 77.7674 32.26C78.2341 32.9933 78.4674 33.8667 78.4674 34.88C78.4674 35.8933 78.2341 36.7667 77.7674 37.5C77.3007 38.22 76.634 38.7733 75.7674 39.16C74.9007 39.5467 73.8541 39.74 72.6274 39.74H68.2674L69.1674 38.82V44H67.1674ZM76.5274 44L72.9674 38.92H75.1074L78.7074 44H76.5274ZM69.1674 39.02L68.2674 38.04H72.5674C73.8474 38.04 74.814 37.7667 75.4674 37.22C76.1341 36.66 76.4674 35.88 76.4674 34.88C76.4674 33.88 76.1341 33.1067 75.4674 32.56C74.814 32.0133 73.8474 31.74 72.5674 31.74H68.2674L69.1674 30.74V39.02ZM83.7586 37.44H89.7386V39.02H83.7586V37.44ZM84.0786 42.38H90.6586V44H82.1386V32.64H90.4386V34.24H84.0786V42.38ZM99.2254 44.16C98.052 44.16 96.9987 43.9067 96.0654 43.4C95.132 42.8933 94.3987 42.2 93.8654 41.32C93.332 40.4267 93.0654 39.4267 93.0654 38.32C93.0654 37.1867 93.332 36.1867 93.8654 35.32C94.3987 34.44 95.132 33.7467 96.0654 33.24C96.9987 32.7333 98.052 32.48 99.2254 32.48C100.199 32.48 101.059 32.6267 101.805 32.92C102.552 33.2133 103.185 33.66 103.705 34.26L102.465 35.52C102.039 35.0533 101.559 34.7133 101.025 34.5C100.492 34.2733 99.912 34.16 99.2854 34.16C98.472 34.16 97.7387 34.34 97.0854 34.7C96.4454 35.0467 95.9387 35.5333 95.5654 36.16C95.2054 36.7867 95.0254 37.5067 95.0254 38.32C95.0254 39.1067 95.2054 39.82 95.5654 40.46C95.9387 41.0867 96.4454 41.58 97.0854 41.94C97.7387 42.3 98.472 42.48 99.2854 42.48C99.912 42.48 100.492 42.3667 101.025 42.14C101.559 41.9133 102.039 41.5667 102.465 41.1L103.705 42.36C103.185 42.96 102.545 43.4133 101.785 43.72C101.039 44.0133 100.185 44.16 99.2254 44.16ZM111.74 44.16C110.567 44.16 109.513 43.9067 108.58 43.4C107.647 42.8933 106.907 42.2 106.36 41.32C105.827 40.4267 105.56 39.42 105.56 38.3C105.56 37.1933 105.827 36.2 106.36 35.32C106.907 34.44 107.647 33.7467 108.58 33.24C109.513 32.7333 110.567 32.48 111.74 32.48C112.927 32.48 113.98 32.7333 114.9 33.24C115.833 33.7467 116.567 34.44 117.1 35.32C117.647 36.2 117.92 37.1933 117.92 38.3C117.92 39.42 117.647 40.4267 117.1 41.32C116.567 42.2 115.833 42.8933 114.9 43.4C113.98 43.9067 112.927 44.16 111.74 44.16ZM111.74 42.48C112.553 42.48 113.273 42.3 113.9 41.94C114.54 41.58 115.04 41.0867 115.4 40.46C115.773 39.82 115.96 39.1067 115.96 38.32C115.96 37.5067 115.773 36.7933 115.4 36.18C115.04 35.5533 114.54 35.06 113.9 34.7C113.273 34.34 112.553 34.16 111.74 34.16C110.94 34.16 110.22 34.34 109.58 34.7C108.94 35.0467 108.433 35.5333 108.06 36.16C107.7 36.7867 107.52 37.5067 107.52 38.32C107.52 39.1067 107.7 39.82 108.06 40.46C108.433 41.0867 108.94 41.58 109.58 41.94C110.22 42.3 110.94 42.48 111.74 42.48ZM121.341 44V32.64H125.981C126.981 32.64 127.841 32.8 128.561 33.12C129.281 33.4267 129.841 33.88 130.241 34.48C130.641 35.0667 130.841 35.7867 130.841 36.64C130.841 37.4667 130.641 38.18 130.241 38.78C129.841 39.38 129.281 39.84 128.561 40.16C127.841 40.4667 126.981 40.62 125.981 40.62H122.421L123.281 39.74V44H121.341ZM128.941 44L125.981 39.88H128.081L131.041 44H128.941ZM123.281 39.96L122.541 39.04H125.861C126.848 39.04 127.594 38.8333 128.101 38.42C128.621 38.0067 128.881 37.4133 128.881 36.64C128.881 35.8667 128.621 35.2733 128.101 34.86C127.594 34.4467 126.848 34.24 125.861 34.24H122.541L123.281 33.32V39.96ZM134.539 44V32.64H139.479C140.759 32.64 141.865 32.8733 142.799 33.34C143.745 33.8067 144.472 34.4667 144.979 35.32C145.499 36.1733 145.759 37.1733 145.759 38.32C145.759 39.4667 145.499 40.4667 144.979 41.32C144.472 42.1733 143.745 42.8333 142.799 43.3C141.865 43.7667 140.759 44 139.479 44H134.539ZM136.479 42.38H139.399C140.332 42.38 141.125 42.22 141.779 41.9C142.432 41.5667 142.932 41.0933 143.279 40.48C143.625 39.8667 143.799 39.1467 143.799 38.32C143.799 37.48 143.625 36.76 143.279 36.16C142.932 35.5467 142.432 35.0733 141.779 34.74C141.125 34.4067 140.332 34.24 139.399 34.24H136.479V42.38ZM150.802 37.44H156.782V39.02H150.802V37.44ZM151.122 42.38H157.702V44H149.182V32.64H157.482V34.24H151.122V42.38ZM161.188 44V32.64H165.828C166.828 32.64 167.688 32.8 168.408 33.12C169.128 33.4267 169.688 33.88 170.088 34.48C170.488 35.0667 170.688 35.7867 170.688 36.64C170.688 37.4667 170.488 38.18 170.088 38.78C169.688 39.38 169.128 39.84 168.408 40.16C167.688 40.4667 166.828 40.62 165.828 40.62H162.268L163.128 39.74V44H161.188ZM168.788 44L165.828 39.88H167.928L170.888 44H168.788ZM163.128 39.96L162.388 39.04H165.708C166.695 39.04 167.441 38.8333 167.948 38.42C168.468 38.0067 168.728 37.4133 168.728 36.64C168.728 35.8667 168.468 35.2733 167.948 34.86C167.441 34.4467 166.695 34.24 165.708 34.24H162.388L163.128 33.32V39.96Z" fill="#230346"/>
</svg>
