<svg width="172" height="50" viewBox="0 0 172 50" fill="none" xmlns="http://www.w3.org/2000/svg">
<path fill-rule="evenodd" clip-rule="evenodd" d="M26.9007 10.7083C26.6782 10.5318 26.402 10.4336 26.1154 10.4315H4.72656C7.96732 5.99508 12.564 2.70571 17.8453 1.0791L27.7761 10.83C27.4871 10.7808 27.1952 10.7401 26.9007 10.7083Z" fill="white"/>
<path fill-rule="evenodd" clip-rule="evenodd" d="M17.4644 12.9307C16.1258 13.7939 14.9382 14.8713 13.9501 16.1144L0.407093 29.5206C0.141104 28.0296 0.00466704 26.5169 0 24.9996C0.0155303 20.7771 1.0893 16.628 3.12039 12.9307H17.4644Z" fill="white"/>
<path fill-rule="evenodd" clip-rule="evenodd" d="M1.10254 32.3893C2.80489 37.7222 6.22092 42.3283 10.7971 45.5039V22.7314L1.10254 32.3893Z" fill="white"/>
<path fill-rule="evenodd" clip-rule="evenodd" d="M25.2498 50.0003C21.0927 49.9823 17.0039 48.9663 13.3262 47.042V33.3232C14.0927 34.445 15.0125 35.4538 16.0554 36.3194C16.0977 36.3805 16.1456 36.4379 16.1985 36.4906L29.2727 49.6934C27.9427 49.8967 26.5979 49.9995 25.2498 50.0003Z" fill="white"/>
<path fill-rule="evenodd" clip-rule="evenodd" d="M25.3215 39.6603C25.3536 39.6603 25.3857 39.6602 25.4178 39.66C25.4862 39.6733 25.5561 39.6801 25.6266 39.6801H45.758C42.4027 44.2213 37.6197 47.5449 32.1393 49.0902L22.5371 39.3936C23.4383 39.5686 24.3692 39.6603 25.3215 39.6603Z" fill="white"/>
<path fill-rule="evenodd" clip-rule="evenodd" d="M33.4404 37.1805C34.7233 36.3137 35.8601 35.2473 36.8064 34.0258L50.2184 20.8184C50.4461 22.1995 50.563 23.5979 50.5673 25.0003C50.5516 29.2653 49.4563 33.4553 47.3854 37.1805H33.4404Z" fill="white"/>
<path fill-rule="evenodd" clip-rule="evenodd" d="M49.5832 17.9929C47.9304 12.5309 44.4915 7.80415 39.8486 4.55273V27.6395L49.5832 17.9929Z" fill="white"/>
<path fill-rule="evenodd" clip-rule="evenodd" d="M34.3052 13.7339L34.3025 13.7325C35.4646 14.6484 36.4835 15.7382 37.3198 16.9625V2.99947C33.6189 1.04695 29.4981 0.0165708 25.3082 0C24.5581 0.000821466 23.8091 0.0330862 23.0631 0.0965434C22.2916 0.194427 21.5244 0.325475 20.7637 0.489394L32.8947 12.3636C33.011 12.4757 34.3052 13.7339 34.3052 13.7339Z" fill="white"/>
<path fill-rule="evenodd" clip-rule="evenodd" d="M28.022 20.796C27.1948 20.2002 26.2191 19.876 25.2177 19.8643C23.8664 19.8642 22.5696 20.4267 21.6088 21.4298C20.648 22.4328 20.1008 23.7955 20.0859 25.2218C20.086 26.2789 20.3823 27.3123 20.9375 28.192C21.4928 29.0717 22.2821 29.7584 23.2063 30.1656C24.1304 30.5728 25.148 30.6823 26.131 30.4804C27.1139 30.2784 28.0183 29.774 28.7303 29.0307C29.4423 28.2874 29.9301 27.3383 30.1323 26.303C30.3344 25.2677 30.2419 24.1924 29.8664 23.2125C29.4909 22.2325 28.8492 21.3918 28.022 20.796ZM23.3927 23.0513V27.5479C23.3927 27.8787 23.7536 28.083 24.0373 27.9128L27.7844 25.6645C28.06 25.4992 28.06 25.0999 27.7844 24.9346L24.0373 22.6863C23.7536 22.5161 23.3927 22.7204 23.3927 23.0513Z" fill="white"/>
<path d="M25.149 32.2207C23.7713 32.2045 22.4292 31.7811 21.2915 31.0039C20.1538 30.2267 19.2715 29.1303 18.7554 27.8528C18.2394 26.5753 18.1127 25.1737 18.3914 23.8244C18.6701 22.475 19.3417 21.2383 20.3217 20.2697C21.3016 19.3012 22.5461 18.6441 23.8986 18.3812C25.2511 18.1184 26.6511 18.2614 27.9225 18.7923C29.1939 19.3233 30.2799 20.2184 31.0438 21.3651C31.8076 22.5118 32.2152 23.8588 32.2153 25.2366C32.211 26.1594 32.0247 27.0724 31.6671 27.9232C31.3094 28.774 30.7875 29.5458 30.1311 30.1946C29.4747 30.8433 28.6968 31.3562 27.8419 31.7039C26.987 32.0516 26.0719 32.2272 25.149 32.2207ZM25.149 20.3066C24.1765 20.318 23.2291 20.6167 22.426 21.1653C21.6228 21.7138 20.9999 22.4877 20.6356 23.3895C20.2712 24.2912 20.1818 25.2806 20.3784 26.2331C20.5751 27.1856 21.0491 28.0587 21.7408 28.7424C22.4325 29.4261 23.311 29.89 24.2657 30.0756C25.2204 30.2612 26.2087 30.1603 27.1062 29.7855C28.0037 29.4107 28.7703 28.7789 29.3095 27.9694C29.8487 27.16 30.1364 26.2092 30.1365 25.2366C30.1235 23.9231 29.592 22.668 28.6579 21.7446C27.7237 20.8212 26.4625 20.3044 25.149 20.3066Z" fill="white"/>
<circle cx="25.1611" cy="25.3574" r="9.42088" stroke="white" stroke-width="0.332053"/>
<path d="M70.7474 20.16C69.6807 20.16 68.6607 20 67.6874 19.68C66.714 19.3467 65.9474 18.92 65.3874 18.4L66.1274 16.84C66.6607 17.3067 67.3407 17.6933 68.1674 18C68.994 18.3067 69.854 18.46 70.7474 18.46C71.5607 18.46 72.2207 18.3667 72.7274 18.18C73.234 17.9933 73.6074 17.74 73.8474 17.42C74.0874 17.0867 74.2074 16.7133 74.2074 16.3C74.2074 15.82 74.0474 15.4333 73.7274 15.14C73.4207 14.8467 73.0141 14.6133 72.5074 14.44C72.014 14.2533 71.4674 14.0933 70.8674 13.96C70.2674 13.8267 69.6607 13.6733 69.0474 13.5C68.4474 13.3133 67.894 13.08 67.3874 12.8C66.894 12.52 66.494 12.1467 66.1874 11.68C65.8807 11.2 65.7274 10.5867 65.7274 9.84C65.7274 9.12 65.914 8.46 66.2874 7.86C66.674 7.24667 67.2607 6.76 68.0474 6.4C68.8474 6.02667 69.8607 5.84 71.0874 5.84C71.9007 5.84 72.7074 5.94667 73.5074 6.16C74.3074 6.37333 75.0007 6.68 75.5874 7.08L74.9274 8.68C74.3274 8.28 73.694 7.99333 73.0274 7.82C72.3607 7.63333 71.714 7.54 71.0874 7.54C70.3007 7.54 69.654 7.64 69.1474 7.84C68.6407 8.04 68.2674 8.30667 68.0274 8.64C67.8007 8.97333 67.6874 9.34667 67.6874 9.76C67.6874 10.2533 67.8407 10.6467 68.1474 10.94C68.4674 11.2333 68.874 11.4667 69.3674 11.64C69.874 11.8133 70.4274 11.9733 71.0274 12.12C71.6274 12.2533 72.2274 12.4067 72.8274 12.58C73.4407 12.7533 73.994 12.98 74.4874 13.26C74.9941 13.54 75.4007 13.9133 75.7074 14.38C76.0141 14.8467 76.1674 15.4467 76.1674 16.18C76.1674 16.8867 75.9741 17.5467 75.5874 18.16C75.2007 18.76 74.6007 19.2467 73.7874 19.62C72.9874 19.98 71.974 20.16 70.7474 20.16ZM84.6293 20.16C83.4559 20.16 82.4026 19.9067 81.4693 19.4C80.5359 18.8933 79.8026 18.2 79.2693 17.32C78.7359 16.4267 78.4693 15.4267 78.4693 14.32C78.4693 13.1867 78.7359 12.1867 79.2693 11.32C79.8026 10.44 80.5359 9.74667 81.4693 9.24C82.4026 8.73333 83.4559 8.48 84.6293 8.48C85.6026 8.48 86.4626 8.62667 87.2093 8.92C87.9559 9.21333 88.5893 9.66 89.1093 10.26L87.8693 11.52C87.4426 11.0533 86.9626 10.7133 86.4293 10.5C85.8959 10.2733 85.3159 10.16 84.6893 10.16C83.8759 10.16 83.1426 10.34 82.4893 10.7C81.8493 11.0467 81.3426 11.5333 80.9693 12.16C80.6093 12.7867 80.4293 13.5067 80.4293 14.32C80.4293 15.1067 80.6093 15.82 80.9693 16.46C81.3426 17.0867 81.8493 17.58 82.4893 17.94C83.1426 18.3 83.8759 18.48 84.6893 18.48C85.3159 18.48 85.8959 18.3667 86.4293 18.14C86.9626 17.9133 87.4426 17.5667 87.8693 17.1L89.1093 18.36C88.5893 18.96 87.9493 19.4133 87.1893 19.72C86.4426 20.0133 85.5893 20.16 84.6293 20.16ZM92.3168 20V8.64H96.9568C97.9568 8.64 98.8168 8.8 99.5368 9.12C100.257 9.42667 100.817 9.88 101.217 10.48C101.617 11.0667 101.817 11.7867 101.817 12.64C101.817 13.4667 101.617 14.18 101.217 14.78C100.817 15.38 100.257 15.84 99.5368 16.16C98.8168 16.4667 97.9568 16.62 96.9568 16.62H93.3968L94.2568 15.74V20H92.3168ZM99.9168 20L96.9568 15.88H99.0568L102.017 20H99.9168ZM94.2568 15.96L93.5168 15.04H96.8368C97.8234 15.04 98.5701 14.8333 99.0768 14.42C99.5968 14.0067 99.8568 13.4133 99.8568 12.64C99.8568 11.8667 99.5968 11.2733 99.0768 10.86C98.5701 10.4467 97.8234 10.24 96.8368 10.24H93.5168L94.2568 9.32V15.96ZM107.134 13.44H113.114V15.02H107.134V13.44ZM107.454 18.38H114.034V20H105.514V8.64H113.814V10.24H107.454V18.38ZM119.141 13.44H125.121V15.02H119.141V13.44ZM119.461 18.38H126.041V20H117.521V8.64H125.821V10.24H119.461V18.38ZM129.527 20V8.64H131.127L138.427 17.6H137.687V8.64H139.627V20H138.027L130.707 11.04H131.467V20H129.527ZM66.6674 44V30H72.1274C73.3541 30 74.4007 30.1933 75.2674 30.58C76.134 30.9667 76.8007 31.5267 77.2674 32.26C77.7341 32.9933 77.9674 33.8667 77.9674 34.88C77.9674 35.8933 77.7341 36.7667 77.2674 37.5C76.8007 38.22 76.134 38.7733 75.2674 39.16C74.4007 39.5467 73.3541 39.74 72.1274 39.74H67.7674L68.6674 38.82V44H66.6674ZM76.0274 44L72.4674 38.92H74.6074L78.2074 44H76.0274ZM68.6674 39.02L67.7674 38.04H72.0674C73.3474 38.04 74.314 37.7667 74.9674 37.22C75.6341 36.66 75.9674 35.88 75.9674 34.88C75.9674 33.88 75.6341 33.1067 74.9674 32.56C74.314 32.0133 73.3474 31.74 72.0674 31.74H67.7674L68.6674 30.74V39.02ZM83.2586 37.44H89.2386V39.02H83.2586V37.44ZM83.5786 42.38H90.1586V44H81.6386V32.64H89.9386V34.24H83.5786V42.38ZM98.7254 44.16C97.552 44.16 96.4987 43.9067 95.5654 43.4C94.632 42.8933 93.8987 42.2 93.3654 41.32C92.832 40.4267 92.5654 39.4267 92.5654 38.32C92.5654 37.1867 92.832 36.1867 93.3654 35.32C93.8987 34.44 94.632 33.7467 95.5654 33.24C96.4987 32.7333 97.552 32.48 98.7254 32.48C99.6987 32.48 100.559 32.6267 101.305 32.92C102.052 33.2133 102.685 33.66 103.205 34.26L101.965 35.52C101.539 35.0533 101.059 34.7133 100.525 34.5C99.992 34.2733 99.412 34.16 98.7854 34.16C97.972 34.16 97.2387 34.34 96.5854 34.7C95.9454 35.0467 95.4387 35.5333 95.0654 36.16C94.7054 36.7867 94.5254 37.5067 94.5254 38.32C94.5254 39.1067 94.7054 39.82 95.0654 40.46C95.4387 41.0867 95.9454 41.58 96.5854 41.94C97.2387 42.3 97.972 42.48 98.7854 42.48C99.412 42.48 99.992 42.3667 100.525 42.14C101.059 41.9133 101.539 41.5667 101.965 41.1L103.205 42.36C102.685 42.96 102.045 43.4133 101.285 43.72C100.539 44.0133 99.6854 44.16 98.7254 44.16ZM111.24 44.16C110.067 44.16 109.013 43.9067 108.08 43.4C107.147 42.8933 106.407 42.2 105.86 41.32C105.327 40.4267 105.06 39.42 105.06 38.3C105.06 37.1933 105.327 36.2 105.86 35.32C106.407 34.44 107.147 33.7467 108.08 33.24C109.013 32.7333 110.067 32.48 111.24 32.48C112.427 32.48 113.48 32.7333 114.4 33.24C115.333 33.7467 116.067 34.44 116.6 35.32C117.147 36.2 117.42 37.1933 117.42 38.3C117.42 39.42 117.147 40.4267 116.6 41.32C116.067 42.2 115.333 42.8933 114.4 43.4C113.48 43.9067 112.427 44.16 111.24 44.16ZM111.24 42.48C112.053 42.48 112.773 42.3 113.4 41.94C114.04 41.58 114.54 41.0867 114.9 40.46C115.273 39.82 115.46 39.1067 115.46 38.32C115.46 37.5067 115.273 36.7933 114.9 36.18C114.54 35.5533 114.04 35.06 113.4 34.7C112.773 34.34 112.053 34.16 111.24 34.16C110.44 34.16 109.72 34.34 109.08 34.7C108.44 35.0467 107.933 35.5333 107.56 36.16C107.2 36.7867 107.02 37.5067 107.02 38.32C107.02 39.1067 107.2 39.82 107.56 40.46C107.933 41.0867 108.44 41.58 109.08 41.94C109.72 42.3 110.44 42.48 111.24 42.48ZM120.841 44V32.64H125.481C126.481 32.64 127.341 32.8 128.061 33.12C128.781 33.4267 129.341 33.88 129.741 34.48C130.141 35.0667 130.341 35.7867 130.341 36.64C130.341 37.4667 130.141 38.18 129.741 38.78C129.341 39.38 128.781 39.84 128.061 40.16C127.341 40.4667 126.481 40.62 125.481 40.62H121.921L122.781 39.74V44H120.841ZM128.441 44L125.481 39.88H127.581L130.541 44H128.441ZM122.781 39.96L122.041 39.04H125.361C126.348 39.04 127.094 38.8333 127.601 38.42C128.121 38.0067 128.381 37.4133 128.381 36.64C128.381 35.8667 128.121 35.2733 127.601 34.86C127.094 34.4467 126.348 34.24 125.361 34.24H122.041L122.781 33.32V39.96ZM134.039 44V32.64H138.979C140.259 32.64 141.365 32.8733 142.299 33.34C143.245 33.8067 143.972 34.4667 144.479 35.32C144.999 36.1733 145.259 37.1733 145.259 38.32C145.259 39.4667 144.999 40.4667 144.479 41.32C143.972 42.1733 143.245 42.8333 142.299 43.3C141.365 43.7667 140.259 44 138.979 44H134.039ZM135.979 42.38H138.899C139.832 42.38 140.625 42.22 141.279 41.9C141.932 41.5667 142.432 41.0933 142.779 40.48C143.125 39.8667 143.299 39.1467 143.299 38.32C143.299 37.48 143.125 36.76 142.779 36.16C142.432 35.5467 141.932 35.0733 141.279 34.74C140.625 34.4067 139.832 34.24 138.899 34.24H135.979V42.38ZM150.302 37.44H156.282V39.02H150.302V37.44ZM150.622 42.38H157.202V44H148.682V32.64H156.982V34.24H150.622V42.38ZM160.688 44V32.64H165.328C166.328 32.64 167.188 32.8 167.908 33.12C168.628 33.4267 169.188 33.88 169.588 34.48C169.988 35.0667 170.188 35.7867 170.188 36.64C170.188 37.4667 169.988 38.18 169.588 38.78C169.188 39.38 168.628 39.84 167.908 40.16C167.188 40.4667 166.328 40.62 165.328 40.62H161.768L162.628 39.74V44H160.688ZM168.288 44L165.328 39.88H167.428L170.388 44H168.288ZM162.628 39.96L161.888 39.04H165.208C166.195 39.04 166.941 38.8333 167.448 38.42C167.968 38.0067 168.228 37.4133 168.228 36.64C168.228 35.8667 167.968 35.2733 167.448 34.86C166.941 34.4467 166.195 34.24 165.208 34.24H161.888L162.628 33.32V39.96Z" fill="white"/>
</svg>
