<svg width="153" height="153" viewBox="0 0 153 153" fill="none" xmlns="http://www.w3.org/2000/svg">
<g filter="url(#filter0_d_504_593)">
<circle cx="76.5" cy="75" r="60" fill="#E1D6FF"/>
<path d="M40.0137 103.027H40.0267V80.9642C40.0267 80.0835 40.7264 79.3712 41.6072 79.3712H63.6696C63.8789 79.3711 64.0862 79.4122 64.2796 79.4923C64.4729 79.5723 64.6487 79.6897 64.7967 79.8377C64.9446 79.9857 65.062 80.1614 65.1421 80.3548C65.2221 80.5481 65.2632 80.7554 65.2631 80.9647V103.027C65.2632 103.236 65.2221 103.444 65.1421 103.637C65.062 103.83 64.9446 104.006 64.7967 104.154C64.6487 104.302 64.4729 104.42 64.2796 104.5C64.0862 104.58 63.8789 104.621 63.6696 104.621H41.5942C40.7259 104.621 40.0137 103.908 40.0137 103.027ZM43.1877 82.5452V101.447H62.0891V82.5452H43.1877ZM68.8904 75.7434C68.7426 75.5966 68.6253 75.422 68.5453 75.2297C68.4652 75.0373 68.424 74.8311 68.424 74.6227C68.424 74.4144 68.4652 74.2082 68.5453 74.0158C68.6253 73.8235 68.7426 73.6489 68.8904 73.5021L86.8592 55.5464H76.508C76.2987 55.5465 76.0914 55.5054 75.898 55.4253C75.7046 55.3453 75.5289 55.2279 75.3809 55.0799C75.2329 54.9319 75.1156 54.7562 75.0355 54.5628C74.9555 54.3694 74.9144 54.1622 74.9145 53.9529C74.9144 53.7436 74.9555 53.5363 75.0355 53.3429C75.1156 53.1495 75.2329 52.9738 75.3809 52.8258C75.5289 52.6778 75.7046 52.5604 75.898 52.4804C76.0914 52.4004 76.2987 52.3592 76.508 52.3594H90.6934C90.9028 52.3592 91.1101 52.4003 91.3036 52.4803C91.497 52.5603 91.6728 52.6776 91.8208 52.8256C91.9689 52.9736 92.0863 53.1494 92.1664 53.3428C92.2464 53.5362 92.2876 53.7435 92.2874 53.9529V68.1258C92.2876 68.3351 92.2464 68.5424 92.1664 68.7358C92.0864 68.9292 91.969 69.1049 91.821 69.2529C91.673 69.4009 91.4973 69.5183 91.3039 69.5983C91.1105 69.6783 90.9032 69.7194 90.6939 69.7193C90.4846 69.7194 90.2774 69.6783 90.084 69.5983C89.8906 69.5183 89.7149 69.4009 89.5669 69.2529C89.4189 69.1049 89.3015 68.9292 89.2215 68.7358C89.1414 68.5424 89.1003 68.3351 89.1005 68.1258V57.7741L71.1447 75.7434C70.9972 75.892 70.8215 76.0098 70.628 76.0899C70.4345 76.1699 70.227 76.2107 70.0176 76.2097C69.6027 76.2097 69.2013 76.0543 68.8904 75.7434Z" fill="#5329C4"/>
<path d="M112.865 103.65C112.945 103.457 112.987 103.25 112.986 103.04V93.0166H109.824V101.447H101.382V104.634H111.393C111.602 104.634 111.81 104.593 112.003 104.513C112.196 104.433 112.372 104.315 112.52 104.167C112.668 104.019 112.785 103.844 112.865 103.65Z" fill="#5329C4"/>
<path d="M111.784 45.944C111.593 45.8712 111.388 45.8339 111.181 45.834H111.181H101.283V48.718H109.63V56.3898H112.757V47.2819C112.757 47.0917 112.716 46.9034 112.637 46.7277C112.558 46.5519 112.442 46.3923 112.296 46.2578C112.149 46.1233 111.976 46.0167 111.784 45.944Z" fill="#5329C4"/>
<path d="M41.805 45.834C40.9346 45.834 40.2427 46.4816 40.2432 47.2701V56.3898H43.3816V48.718H51.7169V45.834H41.805Z" fill="#5329C4"/>
<path d="M111.151 91.7289L111.151 57.7666" stroke="white" stroke-width="2.02037" stroke-dasharray="4.04 4.04"/>
<path d="M99.9066 47.2109L53.0938 47.2109" stroke="white" stroke-width="2.02037" stroke-dasharray="4.04 4.04"/>
<path d="M100.136 103.203L66.6328 103.203" stroke="white" stroke-width="2.02037" stroke-dasharray="4.04 4.04"/>
<path d="M41.6201 77.9607V57.7656" stroke="white" stroke-width="1.95755" stroke-dasharray="3.92 3.92"/>
</g>
<defs>
<filter id="filter0_d_504_593" x="0.283783" y="0.405405" width="152.432" height="152.432" filterUnits="userSpaceOnUse" color-interpolation-filters="sRGB">
<feFlood flood-opacity="0" result="BackgroundImageFix"/>
<feColorMatrix in="SourceAlpha" type="matrix" values="0 0 0 0 0 0 0 0 0 0 0 0 0 0 0 0 0 0 127 0" result="hardAlpha"/>
<feOffset dy="1.62162"/>
<feGaussianBlur stdDeviation="8.10811"/>
<feComposite in2="hardAlpha" operator="out"/>
<feColorMatrix type="matrix" values="0 0 0 0 0.25098 0 0 0 0 0.12549 0 0 0 0 0.588235 0 0 0 0.125 0"/>
<feBlend mode="normal" in2="BackgroundImageFix" result="effect1_dropShadow_504_593"/>
<feBlend mode="normal" in="SourceGraphic" in2="effect1_dropShadow_504_593" result="shape"/>
</filter>
</defs>
</svg>
