<svg width="220" height="294" viewBox="0 0 220 294" fill="none" xmlns="http://www.w3.org/2000/svg">
<g filter="url(#filter0_d_178_1475)">
<rect x="20" y="16" width="180" height="253.25" rx="90" fill="#B6A4E6" shape-rendering="crispEdges"/>
<path d="M125.625 166C128.041 166 130 167.959 130 170.375V215C130 217.417 128.041 219.375 125.625 219.375H75.5925L62.2185 232.134C61.3831 232.931 60 232.339 60 231.184V170.375C60 167.959 61.9588 166 64.375 166L125.625 166ZM91.367 182.1L89.8025 179.692C83.548 182.405 79.25 187.893 79.25 194.018C79.25 197.5 80.2195 199.649 82.022 201.564C83.156 202.768 84.9515 203.625 86.831 203.625C88.4554 203.625 90.0134 202.98 91.162 201.831C92.3107 200.683 92.956 199.125 92.956 197.5C92.956 194.28 90.4675 191.687 87.307 191.393C86.7487 191.34 86.1861 191.351 85.6305 191.428V191.106C85.6515 189.629 85.9525 185.39 90.7195 182.475L91.367 182.1ZM107.302 179.692C101.048 182.405 96.75 187.893 96.75 194.018C96.75 197.5 97.7195 199.649 99.522 201.564C100.656 202.768 102.451 203.625 104.331 203.625C105.955 203.625 107.513 202.98 108.662 201.831C109.811 200.683 110.456 199.125 110.456 197.5C110.456 194.28 107.967 191.687 104.807 191.393C104.249 191.34 103.686 191.351 103.131 191.428C103.131 190.332 103.029 185.261 108.867 182.1L107.302 179.692Z" fill="#230346"/>
</g>
<defs>
<filter id="filter0_d_178_1475" x="0" y="0" width="220" height="293.25" filterUnits="userSpaceOnUse" color-interpolation-filters="sRGB">
<feFlood flood-opacity="0" result="BackgroundImageFix"/>
<feColorMatrix in="SourceAlpha" type="matrix" values="0 0 0 0 0 0 0 0 0 0 0 0 0 0 0 0 0 0 127 0" result="hardAlpha"/>
<feOffset dy="4"/>
<feGaussianBlur stdDeviation="10"/>
<feComposite in2="hardAlpha" operator="out"/>
<feColorMatrix type="matrix" values="0 0 0 0 0.842424 0 0 0 0 0.783333 0 0 0 0 1 0 0 0 1 0"/>
<feBlend mode="normal" in2="BackgroundImageFix" result="effect1_dropShadow_178_1475"/>
<feBlend mode="normal" in="SourceGraphic" in2="effect1_dropShadow_178_1475" result="shape"/>
</filter>
</defs>
</svg>
